<?xml version="1.0" encoding="iso-8859-1"?>
<!-- Uploaded to: SVG Repo, www.svgrepo.com, Generator: SVG Repo Mixer Tools -->
<!DOCTYPE svg PUBLIC "-//W3C//DTD SVG 1.1//EN" "http://www.w3.org/Graphics/SVG/1.1/DTD/svg11.dtd">
<svg fill="#000000" height="800px" width="800px" version="1.1" id="Capa_1" xmlns="http://www.w3.org/2000/svg" xmlns:xlink="http://www.w3.org/1999/xlink" 
	 viewBox="0 0 326.787 326.787" xml:space="preserve">
<g>
	<path d="M280.428,185.164h-11.064v141.623h11.064c18.379,0,33.279-14.9,33.279-33.281v-75.063
		C313.708,200.064,298.807,185.164,280.428,185.164z"/>
	<path d="M13.079,218.443v75.063c0,18.381,14.899,33.281,33.279,33.281h11.063V185.164H46.359
		C27.978,185.164,13.079,200.064,13.079,218.443z"/>
	<path d="M163.395,0c-13.883,5.782-94.88,41.552-94.88,88.438v238.027H258.27V88.438C258.27,41.504,177.285,5.778,163.395,0z
		 M180.331,107.246l5.842-17.977l5.84,17.977h18.9l-15.291,11.105l5.84,17.979l-15.289-11.111L170.88,136.33l5.84-17.979
		l-15.288-11.105H180.331z M203.317,173.584c-20.572,20.57-53.925,20.57-74.496,0c-20.57-20.574-20.57-53.924,0-74.498
		c4.229-4.227,8.998-7.584,14.086-10.074c-9.625,19.662-6.268,44.066,10.074,60.412c16.341,16.342,40.751,19.701,60.412,10.074
		C210.901,164.584,207.546,169.357,203.317,173.584z"/>
</g>
</svg>